<svg xmlns="http://www.w3.org/2000/svg" width="160" height="160" viewBox="0 0 160 160" fill="none">
  <defs>
    <linearGradient id="shieldStroke" x1="28" y1="20" x2="136" y2="136" gradientUnits="userSpaceOnUse">
      <stop stop-color="#2CE7B7" />
      <stop offset="0.5" stop-color="#1DBAEF" />
      <stop offset="1" stop-color="#2458FF" />
    </linearGradient>
    <linearGradient id="barFill" x1="48" y1="54" x2="108" y2="126" gradientUnits="userSpaceOnUse">
      <stop stop-color="#56F0BC" />
      <stop offset="0.55" stop-color="#1ED6F1" />
      <stop offset="1" stop-color="#275CFF" />
    </linearGradient>
    <linearGradient id="lineFill" x1="58" y1="92" x2="136" y2="44" gradientUnits="userSpaceOnUse">
      <stop stop-color="#102A63" />
      <stop offset="1" stop-color="#0E355D" />
    </linearGradient>
    <filter id="glow" x="8" y="8" width="144" height="144" filterUnits="userSpaceOnUse" color-interpolation-filters="sRGB">
      <feGaussianBlur stdDeviation="10" result="blur" />
      <feMerge>
        <feMergeNode in="blur" />
        <feMergeNode in="SourceGraphic" />
      </feMerge>
    </filter>
  </defs>

  <g filter="url(#glow)">
    <path
      d="M80 16L128 36V78C128 105 109.7 129.4 80 142C50.3 129.4 32 105 32 78V36L80 16Z"
      fill="rgba(22,46,92,0.18)"
      stroke="url(#shieldStroke)"
      stroke-width="8"
      stroke-linejoin="round"
    />

    <rect x="52" y="82" width="18" height="28" rx="6" fill="url(#barFill)" />
    <rect x="73" y="66" width="18" height="44" rx="6" fill="url(#barFill)" />
    <rect x="94" y="48" width="18" height="62" rx="6" fill="url(#barFill)" />

    <path
      d="M50 96L66 83C69 80.5 73 80.8 75.5 83.7L79 87.8L103 63C105.3 60.7 108.9 60.7 111.2 63L112 63.8L126 48"
      stroke="url(#lineFill)"
      stroke-width="8"
      stroke-linecap="round"
      stroke-linejoin="round"
    />
    <circle cx="126" cy="48" r="5" fill="#2CE7B7" />
    <circle cx="113" cy="57" r="4.5" fill="#45E1D6" />
    <circle cx="103" cy="63" r="4" fill="#58E9E4" />
  </g>
</svg>
